<svg id="Capa_1" enable-background="new 0 0 503.649 503.649" height="512" viewBox="0 0 503.649 503.649" width="512" xmlns="http://www.w3.org/2000/svg"><g><path d="m275.796 68.307h-23.971v-26.862c0-16.929 13.724-30.653 30.653-30.653h20.51c1.912 0 3.461 1.55 3.461 3.461v23.401c-.001 16.93-13.724 30.653-30.653 30.653z" fill="#80d261"/><path d="m256.1 58.876c0-16.929 13.724-30.653 30.653-30.653h19.696v-13.97c0-1.912-1.55-3.461-3.461-3.461h-20.51c-16.929 0-30.653 13.724-30.653 30.653v26.862h4.275z" fill="#68ca44"/><g><path d="m251.824 75.807c-4.142 0-7.5-3.358-7.5-7.5v-36.496c0-7.759-4.925-14.681-12.256-17.223-3.914-1.357-5.986-5.63-4.628-9.543 1.357-3.914 5.63-5.985 9.543-4.628 13.363 4.635 22.341 17.251 22.341 31.395v36.496c0 4.141-3.357 7.499-7.5 7.499z" fill="#bc7c63"/></g><path d="m356.875 176.51v-3.152c0-58.018-47.033-105.05-105.05-105.05-58.018 0-105.05 47.033-105.05 105.05v3.858c0 38.223-9.734 75.666-27.247 109.642-10.511 20.392-16.445 43.527-16.445 68.049 0 82.09 65.61 148.176 147.699 148.739 82.627.567 149.786-66.243 149.786-148.739 0-25.14-6.237-48.822-17.248-69.585-17.74-33.449-26.445-70.951-26.445-108.812z" fill="#68ca44"/><path d="m186.589 354.907c0-24.522 5.934-47.657 16.445-68.049 17.512-33.975 27.247-71.419 27.247-109.642v-3.858c0-43.179 26.055-80.268 63.297-96.418-12.798-5.55-26.915-8.633-41.753-8.633-58.018 0-105.05 47.033-105.05 105.05v3.858c0 38.223-9.734 75.666-27.247 109.642-10.511 20.392-16.445 43.527-16.445 68.049 0 82.09 65.61 148.176 147.699 148.739 14.822.102 29.142-1.975 42.671-5.912-61.974-17.977-106.864-74.926-106.864-142.826z" fill="#4fc123"/><path d="m250.987 473.646c-31.725-.217-61.396-12.625-83.55-34.935-22.154-22.311-34.354-52.073-34.354-83.804 0-19.155 4.411-37.425 13.111-54.304 20.006-38.813 30.581-81.479 30.581-123.386v-3.859c0-41.383 33.667-75.05 75.05-75.05s75.05 33.667 75.05 75.05v3.152c0 43.447 10.353 85.934 29.94 122.868 9.125 17.207 13.751 35.89 13.751 55.529 0 31.721-12.351 61.542-34.777 83.969-22.422 22.423-52.239 34.773-83.951 34.773-.005 0-.851-.003-.851-.003z" fill="#bbec6c"/><path d="m245.221 473.47c-35.703-27.112-58.632-70.038-58.632-118.563 0-24.522 5.934-47.657 16.445-68.049 17.512-33.975 27.247-71.419 27.247-109.642v-3.858c0-29.097 11.843-55.417 30.957-74.439-3.086-.388-6.223-.611-9.413-.611-41.383 0-75.05 33.667-75.05 75.05v3.859c0 41.907-10.575 84.573-30.581 123.386-8.7 16.879-13.111 35.149-13.111 54.304 0 31.731 12.201 61.493 34.354 83.804 20.805 20.953 48.243 33.17 77.784 34.759z" fill="#a2e62e"/><circle cx="251.824" cy="354.907" fill="#fbc56d" r="73.657"/><path d="m223.749 354.907c0-32.723 21.345-60.446 50.866-70.045-7.178-2.334-14.834-3.612-22.791-3.612-40.68 0-73.657 32.977-73.657 73.657s32.977 73.657 73.657 73.657c7.957 0 15.612-1.277 22.791-3.612-29.521-9.6-50.866-37.323-50.866-70.045z" fill="#e9b665"/></g></svg>