<?xml version="1.0" encoding="iso-8859-1"?>
<!-- Generator: Adobe Illustrator 19.0.0, SVG Export Plug-In . SVG Version: 6.00 Build 0)  -->
<svg version="1.1" id="Capa_1" xmlns="http://www.w3.org/2000/svg" xmlns:xlink="http://www.w3.org/1999/xlink" x="0px" y="0px"
	 viewBox="0 0 512 512" style="enable-background:new 0 0 512 512;" xml:space="preserve">
<path style="fill:#5D5B72;" d="M381.22,170.76V355.9c0,34.35-13.83,65.47-36.22,88.09c-22.69,22.93-54.19,37.14-89,37.14
	s-66.31-14.21-89-37.14c-22.39-22.62-36.22-53.74-36.22-88.09V170.76H381.22z"/>
<path style="fill:#434259;" d="M345,253.46v190.53c-22.69,22.93-54.19,37.14-89,37.14s-66.31-14.21-89-37.14V253.46H345z"/>
<path style="fill:#FF5F5F;" d="M386.03,442.48v62.02c0,4.14-3.36,7.5-7.5,7.5H133.47c-4.14,0-7.5-3.36-7.5-7.5v-62.02
	c0-55.2,44.92-100.11,100.12-100.11h59.82C341.11,342.37,386.03,387.28,386.03,442.48z"/>
<path style="fill:#E24B4B;" d="M285.911,342.37h-7.561c41.249,0,74.807,44.911,74.807,100.115v62.01c0,4.142-2.509,7.5-5.604,7.5
	h30.973c4.143,0,7.5-3.358,7.5-7.5v-62.01C386.025,387.281,341.114,342.37,285.911,342.37z"/>
<path style="fill:#4FA9ED;" d="M360.66,459.54V512H151.34v-52.46c0-2.61,1.36-5.03,3.57-6.39l13.98-8.6v-20.1
	c0-4.14,3.36-7.5,7.5-7.5h159.22c4.14,0,7.5,3.36,7.5,7.5v20.1l13.98,8.6C359.3,454.51,360.66,456.93,360.66,459.54z"/>
<path style="fill:#F4AE98;" d="M222.805,306.995v48.634c0,18.33,14.865,33.195,33.195,33.195c9.165,0,17.467-3.713,23.469-9.726
	c6.013-6.002,9.727-14.304,9.727-23.469v-48.634H222.805z"/>
<g>
	<path style="fill:#D1E5E3;" d="M312.135,446.522c-4.143,0-7.5-3.358-7.5-7.5v-94.998c0-4.142,3.357-7.5,7.5-7.5s7.5,3.358,7.5,7.5
		v94.998C319.635,443.164,316.277,446.522,312.135,446.522z"/>
	<path style="fill:#D1E5E3;" d="M199.865,446.522c-4.143,0-7.5-3.358-7.5-7.5v-94.998c0-4.142,3.357-7.5,7.5-7.5s7.5,3.358,7.5,7.5
		v94.998C207.365,443.164,204.008,446.522,199.865,446.522z"/>
</g>
<g>
	<path style="fill:#FFD2C0;" d="M128.553,216.222h254.893c12.287,0,22.247,9.96,22.247,22.247l0,0
		c0,12.286-9.96,22.247-22.247,22.247H128.553c-12.287,0-22.247-9.96-22.247-22.247l0,0
		C106.307,226.182,116.267,216.222,128.553,216.222z"/>
	<path style="fill:#FFD2C0;" d="M355.676,163.262H156.324c-4.143,0-7.5,3.358-7.5,7.5v56.943
		c0,59.097,48.079,107.175,107.176,107.175s107.176-48.079,107.176-107.175v-56.943C363.176,166.62,359.818,163.262,355.676,163.262
		z"/>
</g>
<path style="fill:#F4AE98;" d="M355.676,163.262h-27.612c2.995,0,5.422,3.358,5.422,7.5v56.943
	c0,59.097-34.76,107.175-77.486,107.175c59.097,0,107.176-48.079,107.176-107.175v-56.943
	C363.176,166.62,359.818,163.262,355.676,163.262z"/>
<g>
	<path style="fill:#434259;" d="M304.939,221.32c-0.489,0-0.989-0.04-1.47-0.14c-0.479-0.1-0.95-0.24-1.4-0.43
		c-0.46-0.19-0.89-0.42-1.3-0.69c-0.41-0.27-0.79-0.59-1.14-0.93c-1.39-1.4-2.2-3.33-2.2-5.3c0-1.98,0.811-3.91,2.2-5.31
		c0.35-0.34,0.729-0.66,1.14-0.93s0.84-0.5,1.3-0.69c0.45-0.19,0.921-0.33,1.4-0.43c0.97-0.19,1.97-0.19,2.93,0
		c0.48,0.1,0.95,0.24,1.4,0.43c0.46,0.19,0.89,0.42,1.3,0.69s0.79,0.59,1.141,0.93c1.399,1.4,2.199,3.33,2.199,5.31
		c0,1.97-0.8,3.9-2.199,5.3c-0.351,0.34-0.73,0.66-1.141,0.93c-0.41,0.27-0.84,0.5-1.3,0.69c-0.45,0.19-0.92,0.33-1.4,0.43
		C305.92,221.28,305.43,221.32,304.939,221.32z"/>
	<path style="fill:#434259;" d="M207.06,221.33c-0.49,0-0.979-0.05-1.46-0.15c-0.479-0.1-0.95-0.24-1.41-0.43
		c-0.449-0.19-0.88-0.42-1.29-0.69c-0.409-0.27-0.79-0.59-1.14-0.93c-0.34-0.35-0.66-0.73-0.93-1.14c-0.271-0.41-0.5-0.84-0.69-1.3
		c-0.189-0.45-0.33-0.92-0.43-1.4c-0.101-0.48-0.15-0.98-0.15-1.46c0-0.49,0.05-0.99,0.15-1.47c0.1-0.48,0.24-0.95,0.43-1.4
		c0.19-0.46,0.42-0.89,0.69-1.3s0.59-0.79,0.93-1.14c0.35-0.34,0.73-0.66,1.14-0.93c0.41-0.27,0.841-0.5,1.29-0.69
		c0.46-0.19,0.931-0.33,1.41-0.43c0.97-0.19,1.96-0.19,2.931,0c0.479,0.1,0.949,0.24,1.399,0.43c0.46,0.19,0.89,0.42,1.3,0.69
		s0.79,0.59,1.141,0.93c0.34,0.35,0.66,0.73,0.93,1.14c0.27,0.41,0.5,0.84,0.69,1.3c0.189,0.45,0.329,0.92,0.43,1.4
		c0.1,0.48,0.149,0.98,0.149,1.47c0,0.48-0.05,0.98-0.149,1.46c-0.101,0.48-0.24,0.95-0.43,1.4c-0.19,0.46-0.421,0.89-0.69,1.3
		s-0.59,0.79-0.93,1.14c-0.351,0.34-0.73,0.66-1.141,0.93c-0.41,0.27-0.84,0.5-1.3,0.69c-0.45,0.19-0.92,0.33-1.399,0.43
		C208.05,221.28,207.55,221.33,207.06,221.33z"/>
</g>
<path style="fill:#D1E5E3;" d="M286,467.162h-60c-4.143,0-7.5-3.358-7.5-7.5s3.357-7.5,7.5-7.5h60c4.143,0,7.5,3.358,7.5,7.5
	S290.143,467.162,286,467.162z"/>
<path style="fill:#E1EEF7;" d="M256,283.523L256,283.523c-12.343,0-22.35-10.006-22.35-22.35v-13.979h44.699v13.979
	C278.35,273.517,268.343,283.523,256,283.523z"/>
<path style="fill:#5D5B72;" d="M265.5,170.76c43.993,0,79.657,35.664,79.657,79.657v90.043h36.068v-169.7H265.5z"/>
<path style="fill:#F7E3AA;" d="M443.42,173.07c-1.01,3.1-3.89,5.19-7.14,5.19H75.72c-3.25,0-6.13-2.09-7.14-5.19
	c-1-3.09,0.11-6.48,2.74-8.38l56.44-40.89c0-0.11,0.01-0.23,0.02-0.34c0.25-7,1.07-13.91,2.42-20.67
	c4.95-24.65,17.07-47.3,35.29-65.43C189.7,13.27,221.84,0,256,0c34.28,0,66.51,13.35,90.74,37.59
	c18.09,18.08,30.12,40.65,35.05,65.2c1.36,6.76,2.18,13.67,2.43,20.67c0.01,0.11,0.02,0.23,0.02,0.34l56.44,40.89
	C443.31,166.59,444.42,169.98,443.42,173.07z"/>
<path style="fill:#E0C48C;" d="M440.681,164.686l-56.437-40.889c-1.123-32.576-14.354-63.064-37.501-86.21
	C322.506,13.349,290.279,0,256,0c25.861,0,50.174,13.349,68.459,37.587c17.463,23.146,27.444,53.634,28.292,86.21l42.577,40.889
	c1.986,1.908,2.819,5.294,2.063,8.387c-0.757,3.092-2.93,5.187-5.383,5.187h44.272c3.251,0,6.132-2.095,7.135-5.187
	C444.417,169.98,443.313,166.594,440.681,164.686z"/>
<path style="fill:#FF5F5F;" d="M384.22,123.46H127.78c0.25-7,1.07-13.91,2.42-20.67h251.59
	C383.15,109.55,383.97,116.46,384.22,123.46z"/>
<path style="fill:#E24B4B;" d="M352.736,123.46h31.484c-0.122-3.427-0.385-6.831-0.778-10.208c-0.016-0.138-0.032-0.276-0.048-0.413
	c-0.194-1.621-0.416-3.236-0.671-4.843c-0.015-0.098-0.032-0.195-0.048-0.292c-0.265-1.646-0.558-3.284-0.885-4.914h-30.914
	C351.901,109.55,352.54,116.452,352.736,123.46z"/>
<g>
</g>
<g>
</g>
<g>
</g>
<g>
</g>
<g>
</g>
<g>
</g>
<g>
</g>
<g>
</g>
<g>
</g>
<g>
</g>
<g>
</g>
<g>
</g>
<g>
</g>
<g>
</g>
<g>
</g>
</svg>
