<svg id="Layer_2" height="512" viewBox="0 0 128 128" width="512" xmlns="http://www.w3.org/2000/svg" data-name="Layer 2"><path d="m73.329 18.237-27.329 27.325a18.145 18.145 0 0 1 0 25.593l13.668 13.664 57.69-57.69 8.892-8.892a37.421 37.421 0 0 0 -52.921 0z" fill="#e3e3ed"/><path d="m59.668 84.819-13.668-13.664-19.512 19.516-11.661.229a13.338 13.338 0 0 0 -9.171 3.9 13.338 13.338 0 0 0 0 18.862l3.152 3.152a13.338 13.338 0 0 0 18.862 0z" fill="#632855"/><path d="m46 71.155 13.668 13.664 57.69-57.69a25.142 25.142 0 0 0 -35.556 0l-30.531 30.531a18.028 18.028 0 0 1 -5.271 13.495z" fill="#c7c7e0"/><path d="m34.137 85.752h10.278v24.385h-10.278z" fill="#ff738d" transform="matrix(.707 .707 -.707 .707 80.76 .915)"/></svg>