<svg height="512" viewBox="0 0 58 59" width="512" xmlns="http://www.w3.org/2000/svg"><g id="016---Macaque-Monkey" fill="none"><path id="Shape" d="m43 54h7c2 0 4-2 4-8v-31c0-3-1.46-3-2-3-.73 0-1.72 0-2 1.43-.1092409.7431219-.6256338 1.362385-1.3370306 1.6033795-.7113967.2409945-1.4978421.063084-2.0362432-.4606411-.538401-.5237251-.737973-1.3049546-.5167262-2.0227384.5379032-2.78319348 3.0611785-4.73241291 5.89-4.55 3 0 6 2 6 7v31c0 11.13-6.12 12-8 12h-14z" fill="#805333"/><path id="Shape" d="m46 42c0 7.2-2.89 17-10 17l-16-11c-3-5-6-14-6-21 0-1.53.74-10.6 1-12l10.27 1c19 5 20.73 20 20.73 26z" fill="#a56a43"/><path id="Shape" d="m20 35v18c0 2.57-2.93 1.47-3.78 3.61-.1322104.3119821-.0974429.6696917.0923715.9503747.1898144.2806829.5088516.4461526.8476285.4396253l19.84.0001862z" fill="#a56a43"/><path id="Shape" d="m37 59h-19.84c-.6678448.005335-1.2942814-.3230399-1.6698292-.8753161-.3755478-.5522763-.4506419-1.255564-.2001708-1.8746839.4806681-1.0755419 1.4341461-1.8664112 2.58-2.14 1-.36 1.13-.46 1.13-1.11v-18c0-.5522847.4477153-1 1-1s1 .4477153 1 1v18c0 2.09-1.47 2.63-2.44 3-.76.28-1.19.47-1.41 1h19.85c.5522847 0 1 .4477153 1 1s-.4477153 1-1 1z" fill="#805333"/><path id="Shape" d="m41 57c-1.3429078 1.2919114-3.1365762 2.0093787-5 2h-13c-.5522847 0-1-.4477153-1-1 0-4.26 3.75-3.48 4-4.71-.3218138-.4997223-.5552206-1.0511036-.69-1.63-1.59-6.07 2.69-12.2 8.45-13.66.3572656-.0875301.7340893.0221877.9885254.2878238.2544361.265636.3478295.6468339.245 1s-.3862598.6246461-.7435254.7121762c-3.57.89-7.25 4.51-7.25 9-.0577922 1.0808926.162559 2.158548.64 3.13.329267.4635931.4456337 1.0454268.32 1.6-.53 2.48-3.28 1.92-3.82 3.27z" fill="#805333"/><path id="Shape" d="m14.08 29c-1.3821509 1.8883055-2.5117075 3.9490739-3.36 6.13-.1473332.3428768-.4733325.5751848-.84552108.6025207-.37218859.0273359-.72863085-.1548493-.92447892-.4725207l-1.66-2.77c-.18006432-.3036995-.50693271-.4899384-.86-.49h-4.43c-1.1045695 0-2 .8954305-2 2s.8954305 2 2 2h2.41c.36433885-.003009.7014803.1923798.88.51l4.51 8c.2256738.4355519.7339592.6431018 1.2.49 2.8293005-.8827881 4.8190469-3.4217046 5-6.38z" fill="#a56a43"/><path id="Shape" d="m27.28 13c-1.1099227 3.0502958-4.0345796 5.0589887-7.28 5-1.1415301-.0248322-2.2048771.5778591-2.77 1.57-.8718957 1.639299-2.4060505 2.8250063-4.2122013 3.2554978-1.8061507.4304914-3.71020334.0642721-5.2277987-1.0054978-3.54-2.5-4.25-8.45 1-10.44.75555358-.3243894 1.2355808-1.0781513 1.21-1.9-.12-10.42 13.1-12.68 17.08-4.48z" fill="#805333"/><path id="Shape" d="m21 14.18c-1.39 1.33-1.7 2.25-3.48 4.94-.1189122.1386491-.2228237.2894884-.31.45-1.0461202 1.9738226-3.0377704 3.2670867-5.2664564 3.4197365-2.228686.1526497-4.37806884-.856982-5.6835436-2.6697365-.85058913-1.1579536-1.29683839-2.5634631-1.27-4 .07352211-2.2768498 1.59638731-4.2509343 3.78-4.9.79936123-.3305318 1.2956415-1.1374915 1.23-2 .0684124-2.93877739 2.1006468-5.46586695 4.9563135-6.16319076s5.8239077.6087022 7.2390925 3.18520071c1.4151849 2.57649851.9250333 5.78210445-1.195406 7.81799005z" fill="#cf976a"/><circle id="Oval" cx="27" cy="9" fill="#a56a43" r="4"/><path id="Shape" d="m12.71 18.71c-1.3771864 1.408342-3.06584665 2.4736024-4.93 3.11-.58438824-.411189-1.09493712-.9183568-1.51-1.5.13836792-.1600462.32393073-.2720841.53-.32 1.71190536-.4965785 3.2613271-1.4386545 4.49-2.73.3921222-.3921222 1.0278778-.3921222 1.42 0s.3921222 1.0278778 0 1.42z" fill="#802d40"/><path id="Shape" d="m17 12c-1.785931.0699644-3.4085306-1.0334033-4-2.72-.1601626-.55228475.1577153-1.12983742.71-1.29s1.1298374.15771525 1.29.71c.3070209.82698094 1.1195924 1.3551524 2 1.3.5522847 0 1 .4477153 1 1s-.4477153 1-1 1z" fill="#35495e"/><path id="Shape" d="m8 16c0 .5522847-.44771525 1-1 1h-2c-.07043491-.6708294-.01618923-1.3489005.16-2h1.84c.55228475 0 1 .4477153 1 1z" fill="#a56a43"/></g></svg>