<svg id="Layer_1" height="512" viewBox="0 0 128 128" width="512" xmlns="http://www.w3.org/2000/svg" data-name="Layer 1"><circle cx="40.411" cy="29.333" fill="#fc364a" r="15.375"/><path d="m40.411 19.75a9.583 9.583 0 0 0 -9.583 9.583h9.583z" fill="#fd9d27"/><path d="m49.994 29.333a9.583 9.583 0 0 0 -9.583-9.583v9.583z" fill="#fece34"/><path d="m40.411 38.917a9.583 9.583 0 0 0 9.583-9.583h-9.583z" fill="#fd9d27"/><path d="m30.828 29.333a9.583 9.583 0 0 0 9.583 9.583v-9.583z" fill="#fece34"/><path d="m83.94 117.75h-34.224a4.006 4.006 0 0 1 -4-3.755l-5.305-84.662h52.833l-5.307 84.662a4.006 4.006 0 0 1 -3.997 3.755z" fill="#d0f5fe"/><path d="m70.161 54.667-.08-.053-.11-.073a18.44 18.44 0 0 0 -17.336-1.373l-5.058 2.156 3.333 52.3h31.918l3.25-56.624c-.75 3.833-4.25 11.5-15.917 3.667z" fill="#fece34"/><path d="m45.318 107.618.4 6.376a4.006 4.006 0 0 0 4 3.755h34.222a4.006 4.006 0 0 0 4-3.755l.4-6.376z" fill="#67b2fc"/><g fill="#e9752f"><path d="m62.661 88.75a1.75 1.75 0 0 1 -1.75-1.75c0-.275-.5-.275-.5 0a1.75 1.75 0 0 1 -3.5 0 3.75 3.75 0 0 1 7.5 0 1.75 1.75 0 0 1 -1.75 1.75z"/><path d="m77.319 77.879a1.75 1.75 0 0 1 -1.75-1.75c0-.275-.5-.275-.5 0a1.75 1.75 0 0 1 -3.5 0 3.75 3.75 0 0 1 7.5 0 1.75 1.75 0 0 1 -1.75 1.75z"/><path d="m71.722 101.879a1.75 1.75 0 0 1 -1.75-1.75c0-.275-.5-.275-.5 0a1.75 1.75 0 1 1 -3.5 0 3.75 3.75 0 1 1 7.5 0 1.75 1.75 0 0 1 -1.75 1.75z"/></g><path d="m102.964 15.967-.545-5.717-19.092 1.82a11.007 11.007 0 0 0 -9.216 6.972l-18.325 47.181 5.353 2.077 18.35-47.245a5.153 5.153 0 0 1 4.311-3.262z" fill="#515d86"/></svg>