<svg id="Capa_1" enable-background="new 0 0 512 512" height="512" viewBox="0 0 512 512" width="512" xmlns="http://www.w3.org/2000/svg"><path d="m259.992.406c-115.723-2.195-193.257 94.95-193.257 210.694v276.717c0 9.122 7.395 16.516 16.516 16.516h362.685c9.122 0 16.516.272 16.516-8.85v-289.033c0-108.392-83.532-197.274-189.734-205.785-4.208-.336-8.451-.178-12.726-.259z" fill="#eac89f"/><path d="m313.807 239.483h-115.614c-7.314 0-14.35 1.188-20.926 3.383-28.46 9.497-40.347 38.008-36.768 70.384 3.224 29.166 19.983 49.877 49 54.25 19.994 3.013 36.909.387 50.75-11.125.135-.113.492-.281.63-.39 4.428-3.526 9.733-5.27 15.12-5.297 5.554.028 11.118 1.938 15.627 5.688 13.841 11.512 32.456 17.475 52.45 14.462 29.017-4.373 52.154-28.594 55.378-57.761 4.406-39.858-26.681-73.594-65.647-73.594z" fill="#c38c66"/><path d="m209.086 358.966c-29.017-4.373-52.154-28.594-55.378-57.761-2.594-23.465 7.185-44.75 23.561-58.336-28.451 9.502-48.301 37.837-44.723 70.207 3.224 29.166 26.361 53.388 55.378 57.761 19.994 3.013 38.608-2.95 52.45-14.462.133-.11.375-.28.509-.387-9.749 3.354-20.582 4.668-31.797 2.978z" fill="#b57f5f"/><path d="m82.58 211.1c0-108.879 83.865-201.637 190.138-210.429-4.199-.336-8.46-.554-12.725-.634-115.724-2.195-210.445 95.319-210.445 211.063v284.384c0 9.122 7.395 16.516 16.516 16.516h379.872c9.121 0 16.516-7.395 16.516-16.516h-313.807c-36.487 0-66.065-29.578-66.065-66.065z" fill="#d2af8c"/><path d="m221.315 295.11 17.353 17.353c9.572 9.572 25.091 9.572 34.664 0l17.353-17.353c5.291-5.291 1.544-14.337-5.939-14.337h-57.492c-7.482.001-11.229 9.047-5.939 14.337z" fill="#4b3f4e"/><circle cx="152.774" cy="177.547" fill="#4b3f4e" r="20.645"/><circle cx="359.226" cy="177.547" fill="#4b3f4e" r="20.645"/><g fill="#f4dbb3"><path d="m173.419 305.548h-90.839c-4.565 0-8.258-3.694-8.258-8.258 0-4.565 3.694-8.258 8.258-8.258h90.839c4.565 0 8.258 3.694 8.258 8.258s-3.693 8.258-8.258 8.258z"/><path d="m115.621 371.612c-3.032 0-5.944-1.669-7.395-4.565-2.04-4.081-.387-9.04 3.694-11.081l66.065-33.032c4.081-2.024 9.032-.387 11.081 3.694 2.04 4.081.387 9.04-3.694 11.081l-66.065 33.032c-1.186.589-2.444.871-3.686.871z"/><path d="m429.42 305.548h-90.839c-4.565 0-8.258-3.694-8.258-8.258 0-4.565 3.694-8.258 8.258-8.258h90.839c4.565 0 8.258 3.694 8.258 8.258s-3.694 8.258-8.258 8.258z"/><path d="m396.379 371.612c-1.242 0-2.5-.282-3.685-.871l-66.065-33.032c-4.081-2.04-5.734-7-3.694-11.081 2.048-4.081 7.008-5.718 11.081-3.694l66.065 33.032c4.081 2.04 5.734 7 3.694 11.081-1.452 2.896-4.363 4.565-7.396 4.565z"/></g></svg>