<svg xmlns="http://www.w3.org/2000/svg" xmlns:xlink="http://www.w3.org/1999/xlink" width="100" height="63.282" viewBox="0 0 100 63.282">
  <defs>
    <clipPath id="clip-path">
      <rect width="100" height="63.281" fill="none"/>
    </clipPath>
  </defs>
  <g id="banana" transform="translate(0 0)">
    <path id="Caminho_46" data-name="Caminho 46" d="M124.654,26.661a3.657,3.657,0,0,0-4.785-2.36c-.665.25-1.39.523-2.151.807a17.119,17.119,0,0,0-5.553,3.4c-7.892,7.225-18.691,14.965-31.676,18.919C52.406,55.986,37.474,32,34.21,25.935L30.9,32.893c1.788,2.274,3.243,4.863,3.441,7.421.977,12.68,15.359,37.059,51.876,25.937,14.368-4.376,32.467-13.954,38.487-37.6A3.715,3.715,0,0,0,124.654,26.661Zm0,0" transform="translate(-24.867 -19.365)" fill="#ffe17d"/>
    <path id="Caminho_47" data-name="Caminho 47" d="M124.654,28.129a3.641,3.641,0,0,0-1.942-2.238A48.12,48.12,0,0,1,107.9,48.706,50.655,50.655,0,0,1,75.908,60.554q-.647.014-1.29.014c-6.191,0-25.157-1.858-33.646-23.492A53.5,53.5,0,0,1,34.21,27.4L30.9,34.362c1.788,2.274,3.243,4.862,3.441,7.42.977,12.68,15.359,37.059,51.876,25.937a69.545,69.545,0,0,0,15.48-6.741l.008,0a48.694,48.694,0,0,0,23-30.865A3.715,3.715,0,0,0,124.654,28.129Zm0,0" transform="translate(-24.867 -20.833)" fill="#ffd164"/>
    <path id="Caminho_48" data-name="Caminho 48" d="M481.717,24.3l-1.139.428,5.546,5.512c.15-.525.294-1.054.431-1.594a3.715,3.715,0,0,0-.053-1.987A3.657,3.657,0,0,0,481.717,24.3Zm0,0" transform="translate(-386.715 -19.365)" fill="#c48d66"/>
    <g id="Repetição_de_grade_3" data-name="Repetição de grade 3" transform="translate(0 0.001)" clip-path="url(#clip-path)">
      <g transform="translate(0 -0.001)">
        <path id="Caminho_49" data-name="Caminho 49" d="M95.953,31.813l-2.385.151a17.824,17.824,0,0,0-6.559,1.7c-10.043,4.785-23.136,9.2-37.257,9.2-30.539,0-38.129-28.326-39.539-35.332A6.516,6.516,0,0,0,8.862,4.677L5.5.592A1.624,1.624,0,0,0,3.1.475L.478,3.092A1.6,1.6,0,0,0,.286,5.148c1.993,2.868,7.008,10.836,5.7,16.7C3.117,34.733,10.04,63.282,49.751,63.282c15.625,0,36.54-4.036,49.7-25.692A3.841,3.841,0,0,0,100,35.6,3.8,3.8,0,0,0,95.953,31.813Zm0,0" transform="translate(0 0)" fill="#ffe17d"/>
      </g>
    </g>
    <path id="Caminho_50" data-name="Caminho 50" d="M121.053,118.545c-13.232,19.529-33.151,23.271-48.185,23.271-34.254,0-44.147-21.21-44.4-35.352a8.88,8.88,0,0,1-.171,1.109c-2.87,12.916,4.053,41.536,43.764,41.536,15.625,0,36.54-4.046,49.7-25.756a3.859,3.859,0,0,0,.55-1.994A3.785,3.785,0,0,0,121.053,118.545Zm0,0" transform="translate(-22.307 -85.828)" fill="#ffd164"/>
    <path id="Caminho_51" data-name="Caminho 51" d="M9.6,5.839a6.45,6.45,0,0,0-.743-1.152L5.5.593A1.622,1.622,0,0,0,3.1.475L.478,3.1A1.611,1.611,0,0,0,.286,5.16,46.089,46.089,0,0,1,3.624,10.8Zm0,0" transform="translate(0 0)" fill="#d29b6e"/>
    <path id="Caminho_52" data-name="Caminho 52" d="M486.075,163.252l-1.263.08,3.849,7.166c.307-.477.611-.959.912-1.454a3.865,3.865,0,0,0,.549-1.993A3.8,3.8,0,0,0,486.075,163.252Zm0,0" transform="translate(-390.123 -131.45)" fill="#c48d66"/>
  </g>
</svg>
