<svg id="Layer_1" height="512" viewBox="0 0 512 512" width="512" xmlns="http://www.w3.org/2000/svg" data-name="Layer 1"><path d="m347.53 217.28a44.909 44.909 0 0 1 -49.19 73.6 44.186 44.186 0 0 1 -12.64-8.44 44.913 44.913 0 0 1 61.83-65.16z" fill="#f8ec7d"/><path d="m298.34 290.88-187.27 197.36a14.971 14.971 0 0 1 -21.72-20.61l187.25-197.35a44.8 44.8 0 0 0 9.1 12.16 44.186 44.186 0 0 0 12.64 8.44z" fill="#e48e66"/><path d="m400.637 274.332a6 6 0 0 1 -5.5-8.391c31.214-71.913 33.934-129.575 8.087-171.382-30.35-49.091-93.048-63.75-120.578-67.912 29.173 42.642 25.074 81.007 15.813 106.513-10.831 29.832-30.493 48.323-31.324 49.1a6 6 0 0 1 -5.959 1.3c-26.529-8.729-43.212-29.456-48.244-59.941a127.628 127.628 0 0 1 -1.442-26.351c-12.5 13.152-29.959 37.286-30.831 70.111-.985 37.309 19.586 73.4 53.684 94.178a6 6 0 0 1 -6.243 10.243c-37.759-23.012-60.534-63.147-59.436-104.741 1.337-50.328 36.168-81.4 46.812-89.718a6 6 0 0 1 9.576 5.92 120.31 120.31 0 0 0 -.228 38.716c4.146 24.6 16.465 41.048 36.637 48.935a127.624 127.624 0 0 0 25.871-42.27c12.9-35.978 5.338-71.56-22.476-105.759a6 6 0 0 1 4.972-9.778c1.025.054 25.448 1.437 55.363 11.245 39.961 13.1 70.461 35.174 88.2 63.835 28.075 45.353 25.636 106.766-7.249 182.531a6 6 0 0 1 -5.505 3.616z" fill="#6fe3ff"/></svg>