<svg id="flat" height="512" viewBox="0 0 512 512" width="512" xmlns="http://www.w3.org/2000/svg"><g fill="#f07f2f"><path d="m384 104v312h-224v-184.44995a32.0651 32.0651 0 0 0 -3.38-14.31005l-29.57-59.1399a66.73576 66.73576 0 0 1 -7.05-29.8701 32.23954 32.23954 0 0 1 57.68-19.79l46.32 59.56v-64a80 80 0 1 1 160 0z"/><path d="m272 416h32a0 0 0 0 1 0 0v72a0 0 0 0 1 0 0 32 32 0 0 1 -32-32v-40a0 0 0 0 1 0 0z"/><path d="m368 416a0 0 0 0 1 0 0v72a0 0 0 0 1 0 0h-32a0 0 0 0 1 0 0v-40a32 32 0 0 1 32-32z" transform="matrix(-1 0 0 -1 704 904)"/></g><path d="m304 456h32v32h-32z" fill="#d45d13"/><path d="m384 163.31006v-30.62012l-4 4-32.69-32.68994 30.62-30.60986a79.90561 79.90561 0 0 0 -7.97-14.67014l-33.96 33.96994-32.69-32.68994 30.33-30.32007a79.22735 79.22735 0 0 0 -17.83-4.80981l-23.81 23.81982-18.61-18.61987a79.89436 79.89436 0 0 0 -14.67 7.97l21.97 21.95993-22.35 22.33984a8.17954 8.17954 0 0 0 -1.71 2.54 8.005 8.005 0 0 0 13.03 8.78l22.34-22.34978 32.69 32.68994-32.69 32.68994-14.34-14.3501a8.18389 8.18389 0 0 0 -2.54-1.71 8.00508 8.00508 0 0 0 -8.78 13.03l14.35 14.34016-14.35 14.33984a8.17954 8.17954 0 0 0 -1.71 2.54 8.005 8.005 0 0 0 13.03 8.78l14.34-14.34978 32.69 32.68994-32.69 32.68994-22.34-22.3501a8.18389 8.18389 0 0 0 -2.54-1.71 8.00508 8.00508 0 0 0 -8.78 13.03l22.35 22.34016-32.69 32.68994-34.34-34.3501a8.18389 8.18389 0 0 0 -2.54-1.71 8.00508 8.00508 0 0 0 -8.78 13.03l34.35 34.34016-32.69 32.68994-44-44v22.62012l82.34 82.34985a8.01492 8.01492 0 0 0 11.31994 0l38.34006-38.34985 38.34 38.34985 11.32-11.32007-38.35-38.33984 32.69-32.68994 48 48.01v-22.64013l-36.69-36.67993 32.69-32.68994 4 4v-30.62012l-4 4-32.69-32.68994 32.69-32.68994zm-136 193.37988-32.69-32.68994 32.69-32.68994 32.69 32.68994zm44-44-32.69-32.68994 32.69-32.68994 32.69 32.68994zm76.69-76.68994-32.69 32.68994-32.69-32.68994 32.69-32.68994zm-32.69-55.31006-32.69-32.68994 32.69-32.68994 32.69 32.68994z" fill="#de6a1e"/><path d="m160 360h224v56h-224z" fill="#de6a1e"/></svg>