<svg xmlns="http://www.w3.org/2000/svg" xmlns:xlink="http://www.w3.org/1999/xlink" width="45" height="40" viewBox="0 0 45 40">
  <defs>
    <clipPath id="clip-path">
      <rect width="45" height="40" fill="none"/>
    </clipPath>
  </defs>
  <g id="speaker" transform="translate(0 0)" clip-path="url(#clip-path)">
    <g id="speaker-2" data-name="speaker" transform="translate(0 -3.011)">
      <path id="Caminho_23" data-name="Caminho 23" d="M24.569,3.361A2.608,2.608,0,0,0,21.9,3.4a.8.8,0,0,0-.112.081l-11.72,9.967H.865a.866.866,0,0,0-.865.87V30.837a.868.868,0,0,0,.865.87l9.177,0L21.757,42.519a.845.845,0,0,0,.139.1,2.608,2.608,0,0,0,2.673.038,2.717,2.717,0,0,0,1.38-2.4V5.757A2.719,2.719,0,0,0,24.569,3.361Zm-.349,36.905a1,1,0,0,1-.5.883.9.9,0,0,1-.865.023L11.245,30.451V26.489a.865.865,0,1,0-1.73,0v3.475l-7.785,0V15.186H9.515v3.478a.865.865,0,1,0,1.73,0V14.72L22.839,4.86a.9.9,0,0,1,.879.016,1,1,0,0,1,.5.882Z" transform="translate(0 0)" fill="#fff"/>
      <path id="Caminho_24" data-name="Caminho 24" d="M38.618,7.059a.87.87,0,0,0-.556,1.648,15.226,15.226,0,0,1,.02,28.787.87.87,0,0,0,.279,1.693.849.849,0,0,0,.279-.047,16.97,16.97,0,0,0-.022-32.08Z" transform="translate(-5.06 -0.522)" fill="#fff"/>
      <path id="Caminho_25" data-name="Caminho 25" d="M41.537,23.816A11.782,11.782,0,0,0,33.1,12.546a.869.869,0,0,0-.479,1.671,10.006,10.006,0,0,1,0,19.2.869.869,0,1,0,.479,1.671A11.781,11.781,0,0,0,41.537,23.816Z" transform="translate(-4.321 -1.24)" fill="#fff"/>
    </g>
  </g>
</svg>
