<svg xmlns="http://www.w3.org/2000/svg" width="150" height="150" viewBox="0 0 150 150">
  <g id="airplane" transform="translate(0)">
    <g id="Grupo_9" data-name="Grupo 9" transform="translate(49.366 9.721)">
      <path id="Caminho_39" data-name="Caminho 39" d="M400.985,277.76a4.267,4.267,0,0,1-6.051,0l-6.051-6.051a4.267,4.267,0,0,1,0-6.051l12.1-12.1a4.275,4.275,0,0,1,6.051,0l6.051,6.051a4.267,4.267,0,0,1,0,6.051Z" transform="translate(-323.429 -188.105)" fill="#66757f"/>
      <path id="Caminho_40" data-name="Caminho 40" d="M181.864,58.643a4.267,4.267,0,0,1-6.051,0l-6.051-6.051a4.267,4.267,0,0,1,0-6.051l12.1-12.1a4.274,4.274,0,0,1,6.051,0l6.051,6.051a4.267,4.267,0,0,1,0,6.051Z" transform="translate(-168.504 -33.182)" fill="#66757f"/>
    </g>
    <g id="Grupo_10" data-name="Grupo 10" transform="translate(0 23.238)">
      <path id="Caminho_41" data-name="Caminho 41" d="M7.091,312.5c8.559,0,47.077,4.28,47.077,4.28s4.28,38.517,4.28,47.077-8.559,8.559-12.839,4.28S28.49,342.458,28.49,342.458s-21.4-12.839-25.678-17.119S-1.468,312.5,7.091,312.5" transform="translate(0 -244.185)" fill="#55acee"/>
      <path id="Caminho_42" data-name="Caminho 42" d="M26.155,79.324c12.839-.167,106.993,4.113,106.993,4.113s3.954,94.153,4.117,106.993-11.82,17.127-16.528,0S98.91,117.674,98.91,117.674s-59.723-18.9-72.776-21.835C9.037,92,13.316,79.491,26.155,79.324" transform="translate(-10.507 -79.319)" fill="#55acee"/>
    </g>
    <path id="Caminho_43" data-name="Caminho 43" d="M169.348,10.239c8.559-8.559,29.958-12.839,34.238-8.559s0,25.678-8.559,34.238-81.314,77.035-81.314,77.035S85.894,132.21,79.474,125.79,92.313,91.553,92.313,91.553,160.788,18.8,169.348,10.239" transform="translate(-55.264)" fill="#ccd6dd"/>
    <g id="Grupo_11" data-name="Grupo 11" transform="translate(19.86 10.239)">
      <path id="Caminho_44" data-name="Caminho 44" d="M106.375,312.329s2.14,2.14-17.119,21.4-21.4,17.119-21.4,17.119-2.14-2.14,17.119-21.4,21.4-17.119,21.4-17.119" transform="translate(-67.787 -231.015)" fill="#66757f"/>
      <path id="Caminho_45" data-name="Caminho 45" d="M418.621,39.227A12.838,12.838,0,0,1,431.46,52.066h3.445a12.484,12.484,0,0,0,.835-4.28A12.838,12.838,0,0,0,422.9,34.947a12.461,12.461,0,0,0-4.28.835Z" transform="translate(-315.837 -34.947)" fill="#66757f"/>
    </g>
  </g>
</svg>
