<svg xmlns="http://www.w3.org/2000/svg" width="97.656" height="100" viewBox="0 0 97.656 100">
  <g id="cat" transform="translate(-7.461 0)">
    <path id="Caminho_53" data-name="Caminho 53" d="M319.636.731a3.257,3.257,0,0,1,5.308,2.512V46.6L289.137,25.569Z" transform="translate(-226.338)" fill="#ffc850"/>
    <path id="Caminho_54" data-name="Caminho 54" d="M365.657,89.287l-21.8-12.807L362.02,56.12a2.082,2.082,0,0,1,3.637,1.372Z" transform="translate(-270.306 -44.596)" fill="#ebaf4b"/>
    <path id="Caminho_55" data-name="Caminho 55" d="M45.909.731A3.257,3.257,0,0,0,40.6,3.242V46.6L76.408,25.569Z" transform="translate(-26.629)" fill="#ffc850"/>
    <path id="Caminho_56" data-name="Caminho 56" d="M57.17,89.287l21.8-12.807L60.807,56.12a2.082,2.082,0,0,0-3.637,1.372Z" transform="translate(-39.943 -44.596)" fill="#ebaf4b"/>
    <ellipse id="Elipse_3" data-name="Elipse 3" cx="45.573" cy="42.879" rx="45.573" ry="42.879" transform="translate(10.716 14.242)" fill="#ffdc64"/>
    <path id="Caminho_57" data-name="Caminho 57" d="M235.882,415.822v3.236a6.491,6.491,0,0,1-6.51,6.472h0a6.491,6.491,0,0,1-6.51-6.472v-3.236l6.51-3.236Z" transform="translate(-173.082 -332.003)" fill="#ff8087"/>
    <path id="Caminho_58" data-name="Caminho 58" d="M237.329,343.862h-7.188a1.834,1.834,0,0,0-1.436,2.988l3.594,4.421a1.853,1.853,0,0,0,2.871,0l3.594-4.421A1.834,1.834,0,0,0,237.329,343.862Z" transform="translate(-177.446 -276.701)" fill="#5d5360"/>
    <g id="Grupo_12" data-name="Grupo 12" transform="translate(72.768 68.807)">
      <path id="Caminho_59" data-name="Caminho 59" d="M367.343,389.938a1.629,1.629,0,0,1-.75-.182c-9.841-5.087-25.243-8.11-25.4-8.14a1.618,1.618,0,1,1,.623-3.176c.648.126,16.014,3.14,26.277,8.445a1.617,1.617,0,0,1-.753,3.054Z" transform="translate(-339.879 -373.307)" fill="#e1a546"/>
      <path id="Caminho_60" data-name="Caminho 60" d="M381.836,357.6a1.636,1.636,0,0,1-.424-.056c-9.123-2.438-25.711-1.975-25.874-1.968a1.618,1.618,0,1,1-.1-3.235c.7-.022,17.237-.484,26.819,2.077a1.618,1.618,0,0,1-.422,3.182Z" transform="translate(-351.114 -352.291)" fill="#e1a546"/>
    </g>
    <path id="Caminho_61" data-name="Caminho 61" d="M81,157.767c-25.169,0-45.572-19.2-45.572-42.879,0-17.39,11.008-32.35,26.82-39.078C40.577,79.121,24.032,96.8,24.032,118.124,24.032,141.806,44.435,161,69.6,161a47.808,47.808,0,0,0,18.752-3.8A48.675,48.675,0,0,1,81,157.767Z" transform="translate(-13.316 -61.003)" fill="#ffc850"/>
    <g id="Grupo_13" data-name="Grupo 13" transform="translate(7.461 68.808)">
      <path id="Caminho_62" data-name="Caminho 62" d="M25.659,389.933a1.617,1.617,0,0,1-.753-3.054c10.263-5.305,25.629-8.32,26.277-8.445a1.618,1.618,0,1,1,.623,3.176c-.155.03-15.558,3.053-25.4,8.14A1.628,1.628,0,0,1,25.659,389.933Z" transform="translate(-20.775 -373.304)" fill="#e1a546"/>
      <path id="Caminho_63" data-name="Caminho 63" d="M9.088,357.6a1.618,1.618,0,0,1-.422-3.182c9.583-2.562,26.118-2.1,26.819-2.077a1.618,1.618,0,1,1-.1,3.235c-.167-.005-16.758-.47-25.874,1.968A1.638,1.638,0,0,1,9.088,357.6Z" transform="translate(-7.461 -352.295)" fill="#e1a546"/>
    </g>
    <path id="Caminho_64" data-name="Caminho 64" d="M137.428,261.458h0a5.7,5.7,0,0,1-5.7-5.663v-3.236a5.7,5.7,0,0,1,5.7-5.663h0a5.7,5.7,0,0,1,5.7,5.663v3.236A5.7,5.7,0,0,1,137.428,261.458Z" transform="translate(-99.856 -198.673)" fill="#4b3f4e"/>
    <path id="Caminho_65" data-name="Caminho 65" d="M157.4,246.9a5.591,5.591,0,0,0-.814.082v8.008a3.255,3.255,0,0,0,6.51,0v-2.427A5.7,5.7,0,0,0,157.4,246.9Z" transform="translate(-119.827 -198.673)" fill="#5d5360"/>
    <ellipse id="Elipse_4" data-name="Elipse 4" cx="2.441" cy="2.427" rx="2.441" ry="2.427" transform="translate(35.131 49.84)" fill="#fff"/>
    <path id="Caminho_66" data-name="Caminho 66" d="M327.972,261.458h0a5.7,5.7,0,0,1-5.7-5.663v-3.236a5.7,5.7,0,0,1,5.7-5.663h0a5.7,5.7,0,0,1,5.7,5.663v3.236A5.7,5.7,0,0,1,327.972,261.458Z" transform="translate(-252.965 -198.673)" fill="#4b3f4e"/>
    <path id="Caminho_67" data-name="Caminho 67" d="M347.943,246.9a5.591,5.591,0,0,0-.814.082v8.008a3.255,3.255,0,0,0,6.51,0v-2.427A5.7,5.7,0,0,0,347.943,246.9Z" transform="translate(-272.937 -198.673)" fill="#5d5360"/>
    <ellipse id="Elipse_5" data-name="Elipse 5" cx="2.441" cy="2.427" rx="2.441" ry="2.427" transform="translate(72.564 49.84)" fill="#fff"/>
    <path id="Caminho_68" data-name="Caminho 68" d="M234.994,351.339l-3.594-7.073a3.563,3.563,0,0,1-.151-.405h-1.108a1.834,1.834,0,0,0-1.436,2.988l3.594,4.421a1.833,1.833,0,0,0,2.724.115C235.014,351.368,235,351.357,234.994,351.339Z" transform="translate(-177.446 -276.701)" fill="#4b3f4e"/>
    <path id="Caminho_69" data-name="Caminho 69" d="M229.371,412.586l-6.51,3.236v3.236a6.41,6.41,0,0,0,.189,1.486,14.729,14.729,0,0,0,4.694-1.4v1.529a1.628,1.628,0,0,0,3.255,0v-1.529a14.729,14.729,0,0,0,4.694,1.4,6.411,6.411,0,0,0,.189-1.486v-3.236Z" transform="translate(-173.082 -332.003)" fill="#e6646e"/>
    <path id="Caminho_70" data-name="Caminho 70" d="M197.566,413.857a11.368,11.368,0,0,1-6.415-1.967,3.133,3.133,0,0,0-3.447,0,11.418,11.418,0,0,1-14.012-.933,1.613,1.613,0,0,1-.125-2.286,1.635,1.635,0,0,1,2.3-.124,8.316,8.316,0,0,0,10,.671,6.386,6.386,0,0,1,7.12,0,8.324,8.324,0,0,0,10-.67,1.634,1.634,0,0,1,2.3.125,1.612,1.612,0,0,1-.126,2.285A11.407,11.407,0,0,1,197.566,413.857Z" transform="translate(-133.139 -328.419)" fill="#ebaf4b"/>
  </g>
</svg>
