<svg id="Capa_1" enable-background="new 0 0 495.57 495.57" height="512" viewBox="0 0 495.57 495.57" width="512" xmlns="http://www.w3.org/2000/svg"><g fill="#fee45a"><path d="m419.755 267.28v28.91c0 16.7-6.42 32.76-17.94 44.84l-24.02 25.2c-10.16-10.5-16.42-24.8-16.42-40.57 0-32.24 26.14-58.38 58.38-58.38z"/><path d="m419.755 172.08v31.93h-85.89-49.38l6.33-8.76v-23.17h43.05z"/><path d="m419.755 98.8v31.93h-85.89-43.05v-31.93h43.05z"/></g><path d="m415.075 57h-81.21l-43.05.77v137.48l-114.91 158.99-6.62 38.13-7.42 42.69c.54 7.82 2.48 15.54 5.82 22.77s8.06 13.97 14.18 19.8c22.2 21.15 55.46 23.51 80.12 7.55 4.21-2.72 8.17-5.98 11.78-9.77l104.03-109.18c-10.16-10.5-16.42-24.8-16.42-40.57 0-32.24 26.14-58.38 58.38-58.38v-205.6c0-2.58-2.09-4.68-4.68-4.68z" fill="#ffceed"/><path d="m261.795 484.88.19.3c-24.66 15.96-57.92 13.6-80.12-7.55-6.12-5.83-10.84-12.57-14.18-19.8s-5.28-14.95-5.82-22.77l7.42-42.69 22.22 22.23z" fill="#fee45a"/><path d="m290.815 57.77v137.48l-114.91 158.99-6.62 38.13-7.42 42.69c.54 7.82 2.48 15.54 5.82 22.77.214.464.451.921.677 1.381 14.185-4.577 27.198-12.628 37.612-23.555l128.043-134.372c16.023-16.802 24.849-38.854 24.849-62.094v-182.19h-25z" fill="#ffbee7"/><path d="m191.505 414.6-22.22-22.23-7.42 42.69c.54 7.82 2.48 15.54 5.82 22.77.214.464.451.921.677 1.381 14.185-4.577 27.198-12.628 37.612-23.555l3.216-3.374z" fill="#fedf30"/><path d="m333.865 4.68v234.51c0 16.7-6.42 32.76-17.94 44.84l-128.05 134.38c-24.77 25.99-65.91 26.98-91.9 2.22-25.99-24.77-26.98-65.91-2.22-91.9l108.59-113.96c.98-1.02 1.52-2.37 1.52-3.79v-206.3c0-2.58 2.09-4.68 4.68-4.68h120.64c2.59 0 4.68 2.1 4.68 4.68z" fill="#ffceed"/><path d="m152.675 420.63c-25.99-24.77-26.98-65.91-2.22-91.9l108.59-113.96c.98-1.02 1.52-2.37 1.52-3.79v-206.3c0-2.58 2.09-4.68 4.68-4.68h-56.7c-2.59 0-4.68 2.1-4.68 4.68v206.3c0 1.42-.54 2.77-1.52 3.79l-108.59 113.96c-24.76 25.99-23.77 67.13 2.22 91.9 20.182 19.227 49.497 22.917 73.191 11.44-5.908-2.864-11.483-6.669-16.491-11.44z" fill="#ffbee7"/><path d="m175.905 427.88.19.3c-24.66 15.96-57.92 13.6-80.12-7.55-23.01-21.93-26.42-56.68-9.72-82.4z" fill="#fee45a"/><path d="m333.865 210.28v28.91c0 16.7-6.42 32.76-17.94 44.84l-24.02 25.2c-10.16-10.5-16.42-24.8-16.42-40.57 0-32.24 26.14-58.38 58.38-58.38z" fill="#fee45a"/><path d="m203.865 115.08h130v31.93h-130z" fill="#fee45a"/><path d="m203.865 115.08h56.7v31.93h-56.7z" fill="#fedf30"/><path d="m203.865 41.8h130v31.93h-130z" fill="#fee45a"/><path d="m203.865 41.8h56.7v31.93h-56.7z" fill="#fedf30"/><path d="m169.166 432.07c-5.908-2.864-11.482-6.669-16.491-11.44-10.246-9.765-16.589-22.076-19.018-34.998l-47.402-47.402c-16.7 25.72-13.29 60.47 9.72 82.4 20.179 19.225 49.495 22.92 73.186 11.448z" fill="#fedf30"/></svg>