<svg id="Layer_1" height="512" viewBox="0 0 128 128" width="512" xmlns="http://www.w3.org/2000/svg" data-name="Layer 1"><path d="m59.812 105.056h-7.3v-17.556h-4.893v23.5h18.136a5.944 5.944 0 0 0 -5.943-5.944z" fill="#fdb556"/><path d="m42.944 45.729h27.226a0 0 0 0 1 0 0v26.286a20.489 20.489 0 0 1 -20.489 20.485h-6.737a0 0 0 0 1 0 0v-46.771a0 0 0 0 1 0 0z" fill="#9ffcfe"/><path d="m35.232 45.729h20.168a0 0 0 0 1 0 0v29.522a35.749 35.749 0 0 1 -35.752 35.749h-1.748a0 0 0 0 1 0 0v-47.939a17.331 17.331 0 0 1 17.332-17.332z" fill="#a24f41"/><path d="m76.649 34.271v4.974a6.479 6.479 0 0 1 -6.479 6.479v18.731h4.979a18.771 18.771 0 0 0 18.771-18.77v-28.685a17.271 17.271 0 0 0 -17.271 17.271z" fill="#e6a396"/><path d="m93.92 20.083h6.127a10.053 10.053 0 0 1 10.053 10.052v.491a0 0 0 0 1 0 0h-16.18a0 0 0 0 1 0 0v-10.543a0 0 0 0 1 0 0z" fill="#fedd55"/><path d="m93.92 30.627h11.635a0 0 0 0 1 0 0v.273a5.546 5.546 0 0 1 -5.546 5.546h-6.089a0 0 0 0 1 0 0v-5.819a0 0 0 0 1 0 0z" fill="#fdb556"/><path d="m87.522 23.327a2.71 2.71 0 1 0 2.71 2.71 2.714 2.714 0 0 0 -2.71-2.71z" fill="#444"/><path d="m63.128 37.053a7.042 7.042 0 0 1 7.042 7.047v11.959a7.042 7.042 0 0 1 -7.042 7.041 7.731 7.731 0 0 1 -7.728-7.73v-10.586a7.731 7.731 0 0 1 7.731-7.731z" fill="#e5feff"/><path d="m46.418 82.373a1.754 1.754 0 0 0 -2.082 1.333c-.021.1-2.378 9.994-16.387 17.08a1.75 1.75 0 1 0 1.58 3.123c15.6-7.892 18.128-19 18.229-19.465a1.747 1.747 0 0 0 -1.34-2.071z" fill="#fff"/></svg>